<svg id="Layer_1" data-name="Layer 1" xmlns="http://www.w3.org/2000/svg" viewBox="0 0 841.89 595.28"><defs><style>.cls-1{fill:#df881f;}.cls-2{fill:#492d16;}.cls-3{fill:#f6a02f;}</style></defs><title>ai-04</title><path class="cls-1" d="M539.67,194.27l-3.5,252-241.09,1.41,3.5-252ZM514.72,423.65l2.87-206.5L320,218.3l-2.87,206.51Z"/><path class="cls-2" d="M441.28,356,408.67,266.4l-19.54.11-34.24,90,18.23-.1,8.1-20.46,32.58-1.1,7.5,21.27Zm2.61,0,16.49-.09.91-65.33-8.26,0-8.23.05-.21,14.77Zm73.7-138.86-2.87,206.5-197.56,1.16L320,218.3ZM461.41,282l.22-15.87-16.49.09-.22,15.87Z"/><polygon class="cls-3" points="461.29 290.59 460.38 355.92 443.89 356.01 444.59 305.45 444.8 290.68 453.03 290.63 461.29 290.59"/><polygon class="cls-3" points="461.63 266.09 461.41 281.96 444.92 282.06 445.14 266.18 461.63 266.09"/><path class="cls-3" d="M408.67,266.4,441.28,356l-20,.11-7.5-21.27L381.22,336l-8.1,20.46-18.23.1,34.24-90Zm.54,54L398,287.77l-11.74,32.74Z"/><polygon class="cls-2" points="397.95 287.77 409.21 320.38 386.21 320.51 397.95 287.77"/></svg>