<svg id="Layer_1" data-name="Layer 1" xmlns="http://www.w3.org/2000/svg" viewBox="0 0 841.89 595.28"><defs><style>.cls-1{fill:#df881f;}.cls-2{fill:#492d16;}.cls-3{fill:#f6a02f;}</style></defs><title>ai</title><path class="cls-1" d="M529,152,525,435.11l-270.87,1.58,3.94-283.12Zm-28,257.71,3.22-232L282.19,179,279,411Z"/><path class="cls-2" d="M418.41,333.72,381.78,233l-21.95.12L321.35,334.29l20.48-.12,9.11-23,36.6-1.24,8.43,23.9Zm2.93,0,18.53-.11,1-73.4-9.27.06-9.26.05-.23,16.6Zm82.8-156-3.22,232L279,411l3.23-232ZM441,250.5l.24-17.83-18.52.11-.25,17.83Z"/><polygon class="cls-3" points="440.89 260.19 439.87 333.59 421.35 333.7 422.13 276.9 422.36 260.3 431.62 260.25 440.89 260.19"/><polygon class="cls-3" points="441.27 232.67 441.03 250.5 422.5 250.61 422.75 232.78 441.27 232.67"/><path class="cls-3" d="M381.78,233l36.63,100.7-22.44.13L387.54,310l-36.6,1.24-9.11,23-20.48.12,38.48-101.15Zm.6,60.64L369.73,257l-13.19,36.79Z"/><polygon class="cls-2" points="369.73 257.03 382.38 293.66 356.54 293.81 369.73 257.03"/></svg>