<svg id="Layer_1" data-name="Layer 1" xmlns="http://www.w3.org/2000/svg" viewBox="0 0 841.89 595.28"><defs><style>.cls-1{fill:#dcdcdc;}.cls-2{fill:#098bbc;}</style></defs><title>css</title><polygon class="cls-1" points="317.66 206.05 330.52 406.08 489.32 419.99 499.06 205.87 317.66 206.05"/><path class="cls-2" d="M283.81,175.35,307,434.82l103,34.12,103-34.33L535.56,175.1Zm205.32,52.24-3.11,31L410.46,291l-.2.06,73.1-.07-8.3,96.12L410.7,406l-64.79-19.08-4.25-48.44,32.06,0,2.13,25.11,34.49,8.69,35.85-10.14,2.39-40.38-109-.22v-.07l-.13.07L337,291.14l73.46-30.69,4.26-1.77-80.57.08-3.84-31Z"/></svg>