<svg id="Layer_1" data-name="Layer 1" xmlns="http://www.w3.org/2000/svg" viewBox="0 0 841.89 595.28"><defs><style>.cls-1{fill:#dcdcdc;}.cls-2{fill:#098bbc;}</style></defs><title>css-04</title><polygon class="cls-1" points="336.67 175.66 347.95 351.1 487.23 363.31 495.77 175.5 336.67 175.66"/><path class="cls-2" d="M307,148.73l20.3,227.58,90.37,29.93L508,376.13l19.84-227.62Zm180.09,45.82-2.73,27.21-66.27,28.41-.18.06,64.12-.07-7.27,84.31L418.27,351,361.44,334.3l-3.72-42.49,28.12,0,1.86,22L418,321.42l31.44-8.89,2.09-35.42-95.62-.19v-.06l-.12.06-2.1-26.63,64.44-26.92,3.73-1.55-70.67.07-3.36-27.2Z"/></svg>