<svg id="Layer_1" data-name="Layer 1" xmlns="http://www.w3.org/2000/svg" viewBox="0 0 841.89 595.28"><defs><style>.cls-1{fill:#71b62f;}</style></defs><title>js-04</title><path class="cls-1" d="M517.34,167.11H317.42a27.27,27.27,0,0,0-27.27,27.26V394.3a27.27,27.27,0,0,0,27.27,27.26H517.34a27.28,27.28,0,0,0,27.27-27.26V194.37A27.28,27.28,0,0,0,517.34,167.11ZM428.63,365.56c0,24.76-14.54,36.07-35.73,36.07-19.14,0-30.22-9.89-35.9-21.87L376.49,368c3.74,6.65,7.15,12.27,15.39,12.27,7.84,0,12.83-3.07,12.83-15V283.94h23.92v81.62Zm56.57,36.07c-22.21,0-36.58-10.57-43.57-24.43L461.11,366c5.12,8.35,11.82,14.54,23.57,14.54,9.89,0,16.25-4.94,16.25-11.82,0-8.17-6.48-11.07-17.44-15.9l-6-2.56c-17.27-7.32-28.68-16.58-28.68-36.06,0-18,13.68-31.58,35-31.58,15.22,0,26.13,5.28,34,19.14l-18.63,11.93c-4.09-7.33-8.52-10.23-15.39-10.23s-11.42,4.43-11.42,10.23c0,7.15,4.43,10.05,14.71,14.54l6,2.55c20.34,8.69,31.75,17.61,31.75,37.6,0,21.47-16.92,33.29-39.58,33.29Z"/></svg>