<svg id="Layer_1" data-name="Layer 1" xmlns="http://www.w3.org/2000/svg" viewBox="0 0 841.89 595.28"><defs><style>.cls-1{fill:#71b62f;}</style></defs><title>js</title><path class="cls-1" d="M549.28,109.5H285.48a36,36,0,0,0-36,36v263.8a36,36,0,0,0,36,36h263.8a36,36,0,0,0,36-36V145.47A36,36,0,0,0,549.28,109.5ZM432.22,371.35c0,32.68-19.19,47.59-47.14,47.59-25.26,0-39.87-13-47.37-28.85l25.71-15.52c4.95,8.77,9.44,16.19,20.31,16.19,10.34,0,16.94-4,16.94-19.86V263.66h31.55V371.35Zm74.64,47.59c-29.3,0-48.26-13.94-57.48-32.22l25.71-14.84c6.74,11,15.58,19.18,31.1,19.18,13,0,21.43-6.52,21.43-15.59,0-10.79-8.54-14.61-23-21l-7.86-3.37c-22.79-9.67-37.85-21.89-37.85-47.59,0-23.68,18.06-41.67,46.16-41.67,20.09,0,34.48,7,44.82,25.26L525.3,302.85c-5.4-9.66-11.24-13.49-20.31-13.49-9.22,0-15.06,5.85-15.06,13.49,0,9.45,5.84,13.27,19.41,19.19l7.87,3.37C544,336.88,559.1,348.64,559.1,375c0,28.33-22.33,43.92-52.24,43.92Z"/></svg>