<svg id="Layer_1" data-name="Layer 1" xmlns="http://www.w3.org/2000/svg" viewBox="0 0 841.89 595.28"><defs><style>.cls-1{fill:#2e96d3;}.cls-2{fill:#1a4454;}.cls-3{fill:#f1f9fe;}</style></defs><title>ps-04</title><path class="cls-1" d="M517.54,149.09,513,399.9l-244.58,5.75L273,154.84ZM490.72,377.15l3.73-206.26-201.13,4.73-3.73,206.26Z"/><path class="cls-2" d="M431.16,273.8l13.22-2.49A19.89,19.89,0,0,0,441,264.2a16.57,16.57,0,0,0-10.36-6.08c-14.47-2.11-22.17.69-26.1,3.45a11,11,0,0,0-3.8,4.23c-10,14.19,5.11,23,5.11,23l23.26,6.86c7.11,6.81-6.12,9.3-6.12,9.3-13.19.31-13-7.54-13-7.54l-14.45,2.52c-.06,3.06,5.29,9.91,5.29,9.91,8.37,7.65,27.12,5.46,27.12,5.46,12.37-2.47,15.92-10.84,15.92-10.84,7.13-18-6-21.22-6-21.22l-18.2-4.8c-9.73-2.39-8.39-6.35-8.39-6.35,1.79-4.83,8.58-4.12,8.58-4.12C426.19,266.07,431.16,273.8,431.16,273.8ZM376,286s20-1.78,19.17-25.3a25.45,25.45,0,0,0-2.9-13c-2.47-4.36-6.92-8.34-15-9.24l-38.71.91-1.39,76.77,15.32-.36.51-28.36ZM494.45,170.89l-3.73,206.26-201.13,4.73,3.73-206.26Z"/><path class="cls-2" d="M370.23,251.69c11.43,2.79,9.17,10.25,9.17,10.25,1.11,8.7-9.56,11.13-9.56,11.13l-16.59.39.39-21.38Z"/><path class="cls-3" d="M437.79,283.24s13.12,3.18,6,21.22c0,0-3.55,8.37-15.92,10.84,0,0-18.75,2.19-27.12-5.46,0,0-5.35-6.85-5.29-9.91l14.45-2.52s-.15,7.85,13,7.54c0,0,13.23-2.49,6.12-9.3l-23.26-6.86s-15.09-8.8-5.11-23a11,11,0,0,1,3.8-4.23c3.93-2.76,11.63-5.56,26.1-3.45A16.57,16.57,0,0,1,441,264.2a19.89,19.89,0,0,1,3.43,7.11l-13.22,2.49s-5-7.73-11.38-5.83c0,0-6.79-.71-8.58,4.12,0,0-1.34,4,8.39,6.35Z"/><path class="cls-3" d="M353.25,273.46l16.59-.39s10.67-2.43,9.56-11.13c0,0,2.26-7.46-9.17-10.25l-16.59.39ZM376,286l-23,1.41-.51,28.36-15.32.36,1.39-76.77,38.71-.91c8.06.9,12.51,4.88,15,9.24a25.45,25.45,0,0,1,2.9,13C396,284.22,376,286,376,286Z"/></svg>