<svg id="Layer_1" data-name="Layer 1" xmlns="http://www.w3.org/2000/svg" viewBox="0 0 841.89 595.28"><defs><style>.cls-1{fill:#2e96d3;}.cls-2{fill:#1a4454;}.cls-3{fill:#f1f9fe;}</style></defs><title>ps</title><path class="cls-1" d="M539.32,145.46,533.94,443,243.8,449.82l5.38-297.54ZM507.51,416l4.42-244.69-238.61,5.6-4.42,244.7Z"/><path class="cls-2" d="M436.84,293.41l15.69-3a23.64,23.64,0,0,0-4.07-8.44,19.7,19.7,0,0,0-12.29-7.21c-17.17-2.51-26.31.81-31,4.09a13.11,13.11,0,0,0-4.5,5c-11.84,16.83,6.06,27.27,6.06,27.27l27.6,8.15c8.43,8.07-7.26,11-7.26,11-15.65.37-15.48-8.95-15.48-8.95l-17.14,3c-.06,3.62,6.28,11.75,6.28,11.75,9.93,9.08,32.17,6.49,32.17,6.49,14.68-2.94,18.89-12.86,18.89-12.86,8.46-21.41-7.11-25.18-7.11-25.18l-21.58-5.7c-11.55-2.83-10-7.52-10-7.52,2.12-5.74,10.18-4.9,10.18-4.9C431,284.23,436.84,293.41,436.84,293.41Zm-65.45,14.46s23.74-2.1,22.73-30a30.13,30.13,0,0,0-3.44-15.44c-2.93-5.17-8.2-9.89-17.77-11L327,252.54l-1.64,91.07,18.16-.42.61-33.64ZM511.93,171.32,507.51,416,268.9,421.62l4.42-244.7Z"/><path class="cls-2" d="M364.56,267.17c13.56,3.3,10.88,12.16,10.88,12.16,1.32,10.31-11.34,13.2-11.34,13.2l-19.68.46.46-25.35Z"/><path class="cls-3" d="M444.71,304.6s15.57,3.77,7.11,25.18c0,0-4.21,9.92-18.89,12.86,0,0-22.24,2.59-32.17-6.49,0,0-6.34-8.13-6.28-11.75l17.14-3s-.17,9.32,15.48,8.95c0,0,15.69-3,7.26-11l-27.6-8.15s-17.9-10.44-6.06-27.27a13.11,13.11,0,0,1,4.5-5c4.66-3.28,13.8-6.6,31-4.09A19.7,19.7,0,0,1,448.46,282a23.64,23.64,0,0,1,4.07,8.44l-15.69,3s-5.88-9.18-13.49-6.93c0,0-8.06-.84-10.18,4.9,0,0-1.59,4.69,10,7.52Z"/><path class="cls-3" d="M344.42,293l19.68-.46s12.66-2.89,11.34-13.2c0,0,2.68-8.86-10.88-12.16l-19.68.47Zm27,14.88-27.27,1.68-.61,33.64-18.16.42L327,252.54l45.92-1.08c9.57,1.07,14.84,5.79,17.77,11a30.13,30.13,0,0,1,3.44,15.44C395.13,305.77,371.39,307.87,371.39,307.87Z"/></svg>